<svg width="20" height="20" viewBox="0 0 20 20" fill="none" xmlns="http://www.w3.org/2000/svg">
<path d="M4.16667 4.16666H7.5L10 6.66666H15C15.663 6.66666 16.2989 6.93005 16.7678 7.39889C17.2366 7.86773 17.5 8.50362 17.5 9.16666V14.1667C17.5 14.8297 17.2366 15.4656 16.7678 15.9344C16.2989 16.4033 15.663 16.6667 15 16.6667H4.16667C3.50363 16.6667 2.86775 16.4033 2.3989 15.9344C1.93006 15.4656 1.66667 14.8297 1.66667 14.1667V6.66666C1.66667 6.00362 1.93006 5.36773 2.3989 4.89889C2.86775 4.43005 3.50363 4.16666 4.16667 4.16666ZM4.16667 4.99999C3.72464 4.99999 3.30072 5.17558 2.98816 5.48815C2.6756 5.80071 2.50001 6.22463 2.50001 6.66666V14.1667C2.50001 14.6087 2.6756 15.0326 2.98816 15.3452C3.30072 15.6577 3.72464 15.8333 4.16667 15.8333H15C15.442 15.8333 15.866 15.6577 16.1785 15.3452C16.4911 15.0326 16.6667 14.6087 16.6667 14.1667V9.16666C16.6667 8.72463 16.4911 8.30071 16.1785 7.98815C15.866 7.67558 15.442 7.49999 15 7.49999H9.65834L7.15834 4.99999H4.16667Z" fill="black"/>
</svg>
