<svg width="20" height="20" viewBox="0 0 20 20" fill="none" xmlns="http://www.w3.org/2000/svg">
<path d="M4.16667 17.5H2.5V15.8333H4.16667V17.5ZM17.5 17.5H12.5V15.8333H14.1667V14.1667H15.8333V12.5H17.5V17.5ZM5.83333 15.8333H4.16667V14.1667H5.83333V15.8333ZM7.5 14.1667H5.83333V12.5H7.5V14.1667ZM14.1667 14.1667H12.5V12.5H14.1667V14.1667ZM12.5 12.5H10.8333V10.8333H12.5V12.5ZM10.8333 10.8333H9.16667V9.16667H10.8333V10.8333ZM9.16667 9.16667H7.5V7.5H9.16667V9.16667ZM12.5 9.16667H10.8333V7.5H12.5V9.16667ZM7.5 7.5H5.83333V5.83333H7.5V7.5ZM14.1667 7.5H12.5V5.83333H14.1667V7.5ZM17.5 2.5V7.5H15.8333V5.83333H14.1667V4.16667H12.5V2.5H17.5ZM5.83333 5.83333H4.16667V4.16667H5.83333V5.83333ZM4.16667 4.16667H2.5V2.5H4.16667V4.16667Z" fill="black"/>
</svg>
